<svg width="407" height="386" viewBox="0 0 407 386" fill="none" xmlns="http://www.w3.org/2000/svg">
<path d="M386 193C386 299.591 299.591 386 193 386C86.409 386 0 299.591 0 193C0 86.409 86.409 0 193 0C299.591 0 386 86.409 386 193Z" fill="#EBF8FF"/>
<path d="M253.243 98.5C253.243 130.256 227.499 156 195.743 156C163.986 156 138.243 130.256 138.243 98.5C138.243 66.7436 163.986 41 195.743 41C227.499 41 253.243 66.7436 253.243 98.5Z" fill="#7BBDF9"/>
<path d="M381.5 220C371.5 303 299.983 385 196.267 385C60 385 5 269 4.99999 219C4.99997 91.0001 133.412 205 196.267 205C259.122 205 394.151 115 381.5 220Z" fill="#7BBDF9"/>
<path d="M407 301C407 347.392 369.392 385 323 385C276.608 385 239 347.392 239 301C239 254.608 276.608 217 323 217C369.392 217 407 254.608 407 301Z" fill="url(#paint0_linear_13_7)"/>
<defs>
<linearGradient id="paint0_linear_13_7" x1="203.5" y1="0" x2="203.5" y2="386" gradientUnits="userSpaceOnUse">
<stop offset="0.9999" stop-color="white"/>
<stop offset="1" stop-color="#999999"/>
</linearGradient>
</defs>
</svg>
